<svg width="55" height="42" viewBox="0 0 55 42" fill="none" xmlns="http://www.w3.org/2000/svg">
<g id="Badge" filter="url(#filter0_dd_1412_7603)">
<rect x="10" y="5" width="35" height="23" rx="5.37857" fill="white"/>
<rect x="9.88795" y="4.88795" width="35.2241" height="23.2241" rx="5.49062" stroke="#D6DCE5" stroke-width="0.224107"/>
<g id="Mastercard">
<path d="M30.0142 11.777H24.861V21.2231H30.0142V11.777Z" fill="#FF5F00"/>
<path d="M25.1882 16.5C25.1874 15.5903 25.3895 14.6923 25.7792 13.874C26.1689 13.0557 26.736 12.3386 27.4376 11.777C26.5688 11.0804 25.5254 10.6472 24.4266 10.5269C23.3279 10.4066 22.2181 10.604 21.2241 11.0967C20.2302 11.5893 19.3922 12.3573 18.8059 13.3128C18.2196 14.2683 17.9087 15.3728 17.9087 16.5C17.9087 17.6272 18.2196 18.7317 18.8059 19.6872C19.3922 20.6427 20.2302 21.4107 21.2241 21.9033C22.2181 22.396 23.3279 22.5935 24.4266 22.4732C25.5254 22.3529 26.5688 21.9197 27.4376 21.2231C26.736 20.6614 26.1689 19.9443 25.7792 19.126C25.3895 18.3077 25.1874 17.4097 25.1882 16.5Z" fill="#EB001B"/>
<path d="M36.9662 16.5C36.9663 17.6272 36.6554 18.7317 36.0691 19.6872C35.4829 20.6427 34.6449 21.4107 33.651 21.9033C32.6571 22.396 31.5473 22.5935 30.4485 22.4732C29.3498 22.3529 28.3064 21.9197 27.4376 21.2231C28.1386 20.6609 28.7052 19.9436 29.0949 19.1255C29.4845 18.3073 29.687 17.4096 29.687 16.5C29.687 15.5904 29.4845 14.6927 29.0949 13.8746C28.7052 13.0564 28.1386 12.3392 27.4376 11.777C28.3064 11.0804 29.3498 10.6472 30.4485 10.5269C31.5473 10.4066 32.6571 10.604 33.651 11.0967C34.6449 11.5894 35.4829 12.3573 36.0691 13.3128C36.6554 14.2683 36.9663 15.3728 36.9662 16.5Z" fill="#F79E1B"/>
<path d="M36.4044 20.2226V20.0292H36.4808V19.9898H36.2861V20.0292H36.3626V20.2226H36.4044ZM36.7823 20.2226V19.9894H36.7227L36.654 20.1498L36.5854 19.9894H36.5256V20.2226H36.5678V20.0467L36.6322 20.1983H36.6759L36.7402 20.0463V20.2226H36.7823Z" fill="#F79E1B"/>
</g>
</g>
<defs>
<filter id="filter0_dd_1412_7603" x="0.811593" y="0.293736" width="53.3768" height="41.3768" filterUnits="userSpaceOnUse" color-interpolation-filters="sRGB">
<feFlood flood-opacity="0" result="BackgroundImageFix"/>
<feColorMatrix in="SourceAlpha" type="matrix" values="0 0 0 0 0 0 0 0 0 0 0 0 0 0 0 0 0 0 127 0" result="hardAlpha"/>
<feOffset dy="0.448214"/>
<feGaussianBlur stdDeviation="2.24107"/>
<feColorMatrix type="matrix" values="0 0 0 0 0.717647 0 0 0 0 0.717647 0 0 0 0 0.717647 0 0 0 0.08 0"/>
<feBlend mode="normal" in2="BackgroundImageFix" result="effect1_dropShadow_1412_7603"/>
<feColorMatrix in="SourceAlpha" type="matrix" values="0 0 0 0 0 0 0 0 0 0 0 0 0 0 0 0 0 0 127 0" result="hardAlpha"/>
<feOffset dy="4.48214"/>
<feGaussianBlur stdDeviation="4.48214"/>
<feColorMatrix type="matrix" values="0 0 0 0 0.717647 0 0 0 0 0.717647 0 0 0 0 0.717647 0 0 0 0.08 0"/>
<feBlend mode="normal" in2="effect1_dropShadow_1412_7603" result="effect2_dropShadow_1412_7603"/>
<feBlend mode="normal" in="SourceGraphic" in2="effect2_dropShadow_1412_7603" result="shape"/>
</filter>
</defs>
</svg>
