<svg width="55" height="42" viewBox="0 0 55 42" fill="none" xmlns="http://www.w3.org/2000/svg">
<g id="Badge" filter="url(#filter0_dd_1412_7605)">
<rect x="10" y="5" width="35" height="23" rx="5.37857" fill="white"/>
<rect x="9.88795" y="4.88795" width="35.2241" height="23.2241" rx="5.49062" stroke="#D6DCE5" stroke-width="0.224107"/>
<g id="Paypal">
<path fill-rule="evenodd" clip-rule="evenodd" d="M17.6567 13.1537H15.6388C15.5007 13.1537 15.3832 13.2561 15.3617 13.395L14.5456 18.6726C14.5294 18.7768 14.6084 18.8706 14.712 18.8706H15.6754C15.8134 18.8706 15.9309 18.7683 15.9524 18.629L16.1725 17.2056C16.1938 17.0662 16.3115 16.964 16.4493 16.964H17.0881C18.4173 16.964 19.1844 16.3079 19.3849 15.0079C19.4751 14.4391 19.3887 13.9922 19.1275 13.6791C18.8408 13.3356 18.332 13.1537 17.6567 13.1537ZM17.8895 15.0813C17.7791 15.8198 17.2259 15.8198 16.6909 15.8198H16.3864L16.6001 14.4405C16.6128 14.3572 16.6836 14.2958 16.7662 14.2958H16.9057C17.2701 14.2958 17.6139 14.2958 17.7916 14.5076C17.8974 14.6341 17.9299 14.8218 17.8895 15.0813ZM23.6886 15.0576H22.7223C22.64 15.0576 22.5688 15.119 22.5561 15.2024L22.5134 15.478L22.4458 15.3782C22.2366 15.0684 21.7702 14.965 21.3046 14.965C20.2367 14.965 19.3247 15.7898 19.147 16.947C19.0547 17.5241 19.1859 18.076 19.507 18.4609C19.8015 18.8148 20.2229 18.9623 20.7241 18.9623C21.5845 18.9623 22.0617 18.398 22.0617 18.398L22.0185 18.6719C22.0023 18.7766 22.0814 18.8705 22.1843 18.8705H23.0548C23.1932 18.8705 23.31 18.7681 23.3318 18.6289L23.8541 15.2556C23.8706 15.1519 23.7918 15.0576 23.6886 15.0576ZM22.3416 16.9758C22.2483 17.5389 21.8102 17.9168 21.2514 17.9168C20.9708 17.9168 20.7465 17.825 20.6026 17.6511C20.4598 17.4784 20.4054 17.2325 20.4509 16.9587C20.538 16.4004 20.9835 16.0101 21.5338 16.0101C21.8081 16.0101 22.0312 16.103 22.1782 16.2785C22.3254 16.4558 22.3838 16.7031 22.3416 16.9758ZM27.864 15.0574H28.8351C28.9711 15.0574 29.0504 15.213 28.9731 15.3268L25.7435 20.0815C25.6912 20.1586 25.605 20.2044 25.513 20.2044H24.5431C24.4066 20.2044 24.3268 20.0476 24.4059 19.9335L25.4115 18.4857L24.342 15.2843C24.305 15.173 24.3855 15.0574 24.5016 15.0574H25.4558C25.5797 15.0574 25.6891 15.1404 25.7249 15.2615L26.2925 17.195L27.6319 15.1829C27.6843 15.1044 27.7714 15.0574 27.864 15.0574Z" fill="#253B80"/>
<path fill-rule="evenodd" clip-rule="evenodd" d="M38.3927 18.6721L39.2209 13.2981C39.2336 13.2146 39.3044 13.1532 39.3868 13.153H40.3191C40.422 13.153 40.5011 13.2471 40.4848 13.3513L39.6682 18.6285C39.6469 18.7678 39.5294 18.8702 39.3911 18.8702H38.5585C38.4555 18.8702 38.3765 18.7763 38.3927 18.6721ZM32.0504 13.1532H30.0321C29.8944 13.1532 29.7769 13.2556 29.7554 13.3946L28.9393 18.6721C28.923 18.7763 29.0021 18.8702 29.1052 18.8702H30.1407C30.237 18.8702 30.3193 18.7986 30.3343 18.7011L30.5659 17.2051C30.5872 17.0657 30.7049 16.9635 30.8427 16.9635H31.4811C32.8107 16.9635 33.5776 16.3074 33.7782 15.0074C33.8688 14.4386 33.7818 13.9917 33.5207 13.6787C33.2341 13.3351 32.7257 13.1532 32.0504 13.1532ZM32.2832 15.0808C32.1732 15.8193 31.6199 15.8193 31.0846 15.8193H30.7804L30.9944 14.44C31.0071 14.3568 31.0773 14.2953 31.1601 14.2953H31.2997C31.6638 14.2953 32.0079 14.2953 32.1854 14.5072C32.2914 14.6336 32.3236 14.8213 32.2832 15.0808ZM38.0818 15.0571H37.1162C37.0332 15.0571 36.9627 15.1185 36.9503 15.2019L36.9075 15.4776L36.8397 15.3777C36.6305 15.068 36.1643 14.9645 35.6987 14.9645C34.6308 14.9645 33.7191 15.7894 33.5415 16.9465C33.4494 17.5236 33.5801 18.0755 33.9011 18.4605C34.1962 18.8143 34.617 18.9618 35.1183 18.9618C35.9786 18.9618 36.4557 18.3975 36.4557 18.3975L36.4127 18.6714C36.3965 18.7762 36.4755 18.87 36.5791 18.87H37.4492C37.587 18.87 37.7044 18.7677 37.726 18.6284L38.2485 15.2551C38.2645 15.1514 38.1855 15.0571 38.0818 15.0571ZM36.7349 16.9753C36.6422 17.5384 36.2035 17.9163 35.6446 17.9163C35.3646 17.9163 35.1398 17.8246 34.9958 17.6506C34.853 17.4779 34.7993 17.232 34.8442 16.9582C34.9317 16.3999 35.3767 16.0097 35.927 16.0097C36.2015 16.0097 36.4244 16.1026 36.5715 16.278C36.7192 16.4553 36.7777 16.7027 36.7349 16.9753Z" fill="#179BD7"/>
</g>
</g>
<defs>
<filter id="filter0_dd_1412_7605" x="0.811593" y="0.293736" width="53.3768" height="41.3768" filterUnits="userSpaceOnUse" color-interpolation-filters="sRGB">
<feFlood flood-opacity="0" result="BackgroundImageFix"/>
<feColorMatrix in="SourceAlpha" type="matrix" values="0 0 0 0 0 0 0 0 0 0 0 0 0 0 0 0 0 0 127 0" result="hardAlpha"/>
<feOffset dy="0.448214"/>
<feGaussianBlur stdDeviation="2.24107"/>
<feColorMatrix type="matrix" values="0 0 0 0 0.717647 0 0 0 0 0.717647 0 0 0 0 0.717647 0 0 0 0.08 0"/>
<feBlend mode="normal" in2="BackgroundImageFix" result="effect1_dropShadow_1412_7605"/>
<feColorMatrix in="SourceAlpha" type="matrix" values="0 0 0 0 0 0 0 0 0 0 0 0 0 0 0 0 0 0 127 0" result="hardAlpha"/>
<feOffset dy="4.48214"/>
<feGaussianBlur stdDeviation="4.48214"/>
<feColorMatrix type="matrix" values="0 0 0 0 0.717647 0 0 0 0 0.717647 0 0 0 0 0.717647 0 0 0 0.08 0"/>
<feBlend mode="normal" in2="effect1_dropShadow_1412_7605" result="effect2_dropShadow_1412_7605"/>
<feBlend mode="normal" in="SourceGraphic" in2="effect2_dropShadow_1412_7605" result="shape"/>
</filter>
</defs>
</svg>
